<?xml version="1.0" encoding="UTF-8" standalone="no"?>
<!-- Created with Inkscape (http://www.inkscape.org/) -->

<svg
   xmlns:dc="http://purl.org/dc/elements/1.1/"
   xmlns:cc="http://creativecommons.org/ns#"
   xmlns:rdf="http://www.w3.org/1999/02/22-rdf-syntax-ns#"
   xmlns:svg="http://www.w3.org/2000/svg"
   xmlns="http://www.w3.org/2000/svg"
   xmlns:sodipodi="http://sodipodi.sourceforge.net/DTD/sodipodi-0.dtd"
   xmlns:inkscape="http://www.inkscape.org/namespaces/inkscape"
   width="86.214386mm"
   height="70.923576mm"
   viewBox="0 0 305.48404 251.30401"
   id="svg2"
   version="1.1"
   inkscape:version="0.91 r13725"
   sodipodi:docname="thumb-down.svg"
   inkscape:export-filename="/home/altar/cloud/box/Images/thumb-down.png"
   inkscape:export-xdpi="147.19223"
   inkscape:export-ydpi="147.19223">
  <defs
     id="defs4" />
  <sodipodi:namedview
     id="base"
     pagecolor="#ffffff"
     bordercolor="#666666"
     borderopacity="1.0"
     inkscape:pageopacity="0.0"
     inkscape:pageshadow="2"
     inkscape:zoom="0.98994949"
     inkscape:cx="-25.058357"
     inkscape:cy="93.165848"
     inkscape:document-units="px"
     inkscape:current-layer="layer1"
     showgrid="false"
     fit-margin-top="0"
     fit-margin-left="0"
     fit-margin-right="0"
     fit-margin-bottom="0"
     inkscape:window-width="1366"
     inkscape:window-height="704"
     inkscape:window-x="0"
     inkscape:window-y="0"
     inkscape:window-maximized="1" />
  <metadata
     id="metadata7">
    <rdf:RDF>
      <cc:Work
         rdf:about="">
        <dc:format>image/svg+xml</dc:format>
        <dc:type
           rdf:resource="http://purl.org/dc/dcmitype/StillImage" />
        <dc:title></dc:title>
      </cc:Work>
    </rdf:RDF>
  </metadata>
  <g
     inkscape:label="Camada 1"
     inkscape:groupmode="layer"
     id="layer1"
     transform="translate(-216.54369,-261.35306)">
    <path
       d="m 216.54369,381.98546 c 0,5.9021 4.78462,10.6867 10.68664,10.6867 l 77.71577,0 c 5.90198,0 10.6867,-4.7846 10.6867,-10.6867 l 0,-104.2381 c 0,-5.9022 -4.78472,-10.6865 -10.6867,-10.6865 l -77.71577,0 c -5.90202,0 -10.68664,4.7843 -10.68664,10.6865 z M 406.92527,512.5683 c 16.10088,1.3171 30.32023,-12.2135 32.14182,-27.8566 3.28497,-16.814 -0.0351,-23.7337 -8.42935,-38.1928 -4.47026,-9.9366 -3.32725,-8.36974 -0.90645,-19.68804 8.4261,-2.3305 18.92542,0.2872 28.13234,-0.5885 15.05509,-0.3506 30.47737,0.6533 45.20306,-2.9316 9.89274,-4.6425 16.37629,-15.2828 18.96105,-25.6102 -0.63,-9.4758 -15.21168,-17.2496 -5.40356,-26.8846 8.52833,-8.3795 3.89517,-18.5942 -4.04817,-25.274 -7.32054,-9.8513 9.07013,-20.2876 1.52459,-30.3909 -5.47738,-7.6356 -16.32406,-13.3109 -13.5305,-24.3628 1.27801,-11.1042 -9.60472,-18.2789 -17.49404,-23.947 -13.89231,-6.9354 -30.16057,-5.13 -45.22556,-5.4882 -25.2196,0.7956 -50.65521,1.1142 -75.33302,6.9317 -11.84102,2.2428 -23.73821,4.2318 -35.54252,6.642 l -0.3483,112.045 c 9.96328,-1.4159 17.99266,5.7155 23.26302,13.3942 11.66463,15.7161 23.70695,24.3978 32.06447,41.8576 7.8087,11.7626 9.45759,15.15814 14.01678,29.37854 6.48769,15.0601 5.03548,21.6977 6.77337,37.768 0,0 5.66939,3.2486 4.17973,3.1985 z"
       id="ThumbsUp-3"
       inkscape:connector-curvature="0"
       style="fill:#000000;stroke:none;stroke-width:0"
       sodipodi:nodetypes="ssssssssscccccccccccccccccccccc" />
  </g>
</svg>
